<mxfile host="Electron" modified="2024-05-10T20:26:32.277Z" agent="Mozilla/5.0 (Windows NT 10.0; Win64; x64) AppleWebKit/537.36 (KHTML, like Gecko) draw.io/24.2.5 Chrome/120.0.6099.109 Electron/28.1.0 Safari/537.36" etag="baACPVl8uWn8bhjJA6SY" version="24.2.5" type="device">
  <diagram id="jt2cma6V3aLsr3uaVrV_" name="Página-1">
    <mxGraphModel dx="3338" dy="1908" grid="1" gridSize="10" guides="1" tooltips="1" connect="1" arrows="1" fold="1" page="0" pageScale="1" pageWidth="827" pageHeight="1169" math="0" shadow="0">
      <root>
        <mxCell id="0" />
        <mxCell id="1" parent="0" />
        <mxCell id="D-UneGRkx3yv40T7FV0B-1" value="Departamento" style="swimlane;fontStyle=1;align=center;verticalAlign=top;childLayout=stackLayout;horizontal=1;startSize=26;horizontalStack=0;resizeParent=1;resizeParentMax=0;resizeLast=0;collapsible=1;marginBottom=0;" parent="1" vertex="1">
          <mxGeometry x="210" y="1338" width="160" height="226" as="geometry" />
        </mxCell>
        <mxCell id="D-UneGRkx3yv40T7FV0B-2" value="- id : int&#xa;" style="text;strokeColor=none;fillColor=none;align=left;verticalAlign=top;spacingLeft=4;spacingRight=4;overflow=hidden;rotatable=0;points=[[0,0.5],[1,0.5]];portConstraint=eastwest;" parent="D-UneGRkx3yv40T7FV0B-1" vertex="1">
          <mxGeometry y="26" width="160" height="26" as="geometry" />
        </mxCell>
        <mxCell id="D-UneGRkx3yv40T7FV0B-5" value="- codigo : String" style="text;strokeColor=none;fillColor=none;align=left;verticalAlign=top;spacingLeft=4;spacingRight=4;overflow=hidden;rotatable=0;points=[[0,0.5],[1,0.5]];portConstraint=eastwest;" parent="D-UneGRkx3yv40T7FV0B-1" vertex="1">
          <mxGeometry y="52" width="160" height="26" as="geometry" />
        </mxCell>
        <mxCell id="D-UneGRkx3yv40T7FV0B-7" value="- nombre : String" style="text;strokeColor=none;fillColor=none;align=left;verticalAlign=top;spacingLeft=4;spacingRight=4;overflow=hidden;rotatable=0;points=[[0,0.5],[1,0.5]];portConstraint=eastwest;" parent="D-UneGRkx3yv40T7FV0B-1" vertex="1">
          <mxGeometry y="78" width="160" height="26" as="geometry" />
        </mxCell>
        <mxCell id="D-UneGRkx3yv40T7FV0B-6" value="- jefe : Profesor" style="text;strokeColor=none;fillColor=none;align=left;verticalAlign=top;spacingLeft=4;spacingRight=4;overflow=hidden;rotatable=0;points=[[0,0.5],[1,0.5]];portConstraint=eastwest;" parent="D-UneGRkx3yv40T7FV0B-1" vertex="1">
          <mxGeometry y="104" width="160" height="26" as="geometry" />
        </mxCell>
        <mxCell id="D-UneGRkx3yv40T7FV0B-3" value="" style="line;strokeWidth=1;fillColor=none;align=left;verticalAlign=middle;spacingTop=-1;spacingLeft=3;spacingRight=3;rotatable=0;labelPosition=right;points=[];portConstraint=eastwest;" parent="D-UneGRkx3yv40T7FV0B-1" vertex="1">
          <mxGeometry y="130" width="160" height="8" as="geometry" />
        </mxCell>
        <mxCell id="D-UneGRkx3yv40T7FV0B-4" value="+ Departamento( codigo: &#xa;String, nombre : String, jefe :&#xa;Profesor) " style="text;strokeColor=none;fillColor=none;align=left;verticalAlign=top;spacingLeft=4;spacingRight=4;overflow=hidden;rotatable=0;points=[[0,0.5],[1,0.5]];portConstraint=eastwest;" parent="D-UneGRkx3yv40T7FV0B-1" vertex="1">
          <mxGeometry y="138" width="160" height="62" as="geometry" />
        </mxCell>
        <mxCell id="D-UneGRkx3yv40T7FV0B-8" value="+ getter/setter" style="text;strokeColor=none;fillColor=none;align=left;verticalAlign=top;spacingLeft=4;spacingRight=4;overflow=hidden;rotatable=0;points=[[0,0.5],[1,0.5]];portConstraint=eastwest;" parent="D-UneGRkx3yv40T7FV0B-1" vertex="1">
          <mxGeometry y="200" width="160" height="26" as="geometry" />
        </mxCell>
        <mxCell id="D-UneGRkx3yv40T7FV0B-166" style="edgeStyle=orthogonalEdgeStyle;rounded=0;orthogonalLoop=1;jettySize=auto;html=1;" parent="1" source="D-UneGRkx3yv40T7FV0B-9" target="D-UneGRkx3yv40T7FV0B-120" edge="1">
          <mxGeometry relative="1" as="geometry">
            <Array as="points">
              <mxPoint x="820" y="254" />
            </Array>
          </mxGeometry>
        </mxCell>
        <mxCell id="D-UneGRkx3yv40T7FV0B-167" style="edgeStyle=orthogonalEdgeStyle;rounded=0;orthogonalLoop=1;jettySize=auto;html=1;" parent="1" source="D-UneGRkx3yv40T7FV0B-9" target="D-UneGRkx3yv40T7FV0B-67" edge="1">
          <mxGeometry relative="1" as="geometry">
            <Array as="points">
              <mxPoint x="640" y="235" />
            </Array>
          </mxGeometry>
        </mxCell>
        <mxCell id="hdvVi29aJsotizUqz47K-5" style="edgeStyle=orthogonalEdgeStyle;rounded=0;orthogonalLoop=1;jettySize=auto;html=1;" parent="1" source="D-UneGRkx3yv40T7FV0B-9" target="D-UneGRkx3yv40T7FV0B-135" edge="1">
          <mxGeometry relative="1" as="geometry">
            <Array as="points">
              <mxPoint x="830" y="670" />
            </Array>
          </mxGeometry>
        </mxCell>
        <mxCell id="hdvVi29aJsotizUqz47K-6" style="edgeStyle=orthogonalEdgeStyle;rounded=0;orthogonalLoop=1;jettySize=auto;html=1;entryX=0;entryY=0.5;entryDx=0;entryDy=0;" parent="1" source="D-UneGRkx3yv40T7FV0B-9" target="D-UneGRkx3yv40T7FV0B-136" edge="1">
          <mxGeometry relative="1" as="geometry">
            <Array as="points">
              <mxPoint x="860" y="1400" />
              <mxPoint x="860" y="696" />
            </Array>
          </mxGeometry>
        </mxCell>
        <mxCell id="hdvVi29aJsotizUqz47K-7" style="edgeStyle=orthogonalEdgeStyle;rounded=0;orthogonalLoop=1;jettySize=auto;html=1;entryX=1;entryY=0.5;entryDx=0;entryDy=0;" parent="1" source="D-UneGRkx3yv40T7FV0B-9" target="D-UneGRkx3yv40T7FV0B-82" edge="1">
          <mxGeometry relative="1" as="geometry">
            <Array as="points">
              <mxPoint x="630" y="599" />
            </Array>
          </mxGeometry>
        </mxCell>
        <mxCell id="hdvVi29aJsotizUqz47K-8" style="edgeStyle=orthogonalEdgeStyle;rounded=0;orthogonalLoop=1;jettySize=auto;html=1;" parent="1" source="D-UneGRkx3yv40T7FV0B-9" target="D-UneGRkx3yv40T7FV0B-80" edge="1">
          <mxGeometry relative="1" as="geometry">
            <Array as="points">
              <mxPoint x="590" y="1451" />
              <mxPoint x="590" y="625" />
            </Array>
          </mxGeometry>
        </mxCell>
        <mxCell id="D-UneGRkx3yv40T7FV0B-9" value="Profesor" style="swimlane;fontStyle=1;align=center;verticalAlign=top;childLayout=stackLayout;horizontal=1;startSize=26;horizontalStack=0;resizeParent=1;resizeParentMax=0;resizeLast=0;collapsible=1;marginBottom=0;" parent="1" vertex="1">
          <mxGeometry x="620" y="1250" width="220" height="402" as="geometry" />
        </mxCell>
        <mxCell id="D-UneGRkx3yv40T7FV0B-10" value="- id : int" style="text;strokeColor=none;fillColor=none;align=left;verticalAlign=top;spacingLeft=4;spacingRight=4;overflow=hidden;rotatable=0;points=[[0,0.5],[1,0.5]];portConstraint=eastwest;" parent="D-UneGRkx3yv40T7FV0B-9" vertex="1">
          <mxGeometry y="26" width="220" height="26" as="geometry" />
        </mxCell>
        <mxCell id="D-UneGRkx3yv40T7FV0B-13" value="- dni : String" style="text;strokeColor=none;fillColor=none;align=left;verticalAlign=top;spacingLeft=4;spacingRight=4;overflow=hidden;rotatable=0;points=[[0,0.5],[1,0.5]];portConstraint=eastwest;" parent="D-UneGRkx3yv40T7FV0B-9" vertex="1">
          <mxGeometry y="52" width="220" height="26" as="geometry" />
        </mxCell>
        <mxCell id="D-UneGRkx3yv40T7FV0B-14" value="- nombre : String" style="text;strokeColor=none;fillColor=none;align=left;verticalAlign=top;spacingLeft=4;spacingRight=4;overflow=hidden;rotatable=0;points=[[0,0.5],[1,0.5]];portConstraint=eastwest;" parent="D-UneGRkx3yv40T7FV0B-9" vertex="1">
          <mxGeometry y="78" width="220" height="26" as="geometry" />
        </mxCell>
        <mxCell id="D-UneGRkx3yv40T7FV0B-16" value="- apellidos : String" style="text;strokeColor=none;fillColor=none;align=left;verticalAlign=top;spacingLeft=4;spacingRight=4;overflow=hidden;rotatable=0;points=[[0,0.5],[1,0.5]];portConstraint=eastwest;" parent="D-UneGRkx3yv40T7FV0B-9" vertex="1">
          <mxGeometry y="104" width="220" height="26" as="geometry" />
        </mxCell>
        <mxCell id="D-UneGRkx3yv40T7FV0B-19" value="- correo : String" style="text;strokeColor=none;fillColor=none;align=left;verticalAlign=top;spacingLeft=4;spacingRight=4;overflow=hidden;rotatable=0;points=[[0,0.5],[1,0.5]];portConstraint=eastwest;" parent="D-UneGRkx3yv40T7FV0B-9" vertex="1">
          <mxGeometry y="130" width="220" height="26" as="geometry" />
        </mxCell>
        <mxCell id="D-UneGRkx3yv40T7FV0B-20" value="- password : String" style="text;strokeColor=none;fillColor=none;align=left;verticalAlign=top;spacingLeft=4;spacingRight=4;overflow=hidden;rotatable=0;points=[[0,0.5],[1,0.5]];portConstraint=eastwest;" parent="D-UneGRkx3yv40T7FV0B-9" vertex="1">
          <mxGeometry y="156" width="220" height="26" as="geometry" />
        </mxCell>
        <mxCell id="D-UneGRkx3yv40T7FV0B-17" value="- nivel : Nivel" style="text;strokeColor=none;fillColor=none;align=left;verticalAlign=top;spacingLeft=4;spacingRight=4;overflow=hidden;rotatable=0;points=[[0,0.5],[1,0.5]];portConstraint=eastwest;" parent="D-UneGRkx3yv40T7FV0B-9" vertex="1">
          <mxGeometry y="182" width="220" height="26" as="geometry" />
        </mxCell>
        <mxCell id="D-UneGRkx3yv40T7FV0B-18" value="- activo : boolean" style="text;strokeColor=none;fillColor=none;align=left;verticalAlign=top;spacingLeft=4;spacingRight=4;overflow=hidden;rotatable=0;points=[[0,0.5],[1,0.5]];portConstraint=eastwest;" parent="D-UneGRkx3yv40T7FV0B-9" vertex="1">
          <mxGeometry y="208" width="220" height="26" as="geometry" />
        </mxCell>
        <mxCell id="D-UneGRkx3yv40T7FV0B-15" value="- departamento : Departamento" style="text;strokeColor=none;fillColor=none;align=left;verticalAlign=top;spacingLeft=4;spacingRight=4;overflow=hidden;rotatable=0;points=[[0,0.5],[1,0.5]];portConstraint=eastwest;" parent="D-UneGRkx3yv40T7FV0B-9" vertex="1">
          <mxGeometry y="234" width="220" height="26" as="geometry" />
        </mxCell>
        <mxCell id="D-UneGRkx3yv40T7FV0B-11" value="" style="line;strokeWidth=1;fillColor=none;align=left;verticalAlign=middle;spacingTop=-1;spacingLeft=3;spacingRight=3;rotatable=0;labelPosition=right;points=[];portConstraint=eastwest;" parent="D-UneGRkx3yv40T7FV0B-9" vertex="1">
          <mxGeometry y="260" width="220" height="8" as="geometry" />
        </mxCell>
        <mxCell id="D-UneGRkx3yv40T7FV0B-12" value="+ Profesor( dni : String, nombre : &#xa;String, apellidos : String, correo : &#xa;String, password : String, nivel :&#xa;Nivel, activo : boolean, departamento :&#xa;Departamento" style="text;strokeColor=none;fillColor=none;align=left;verticalAlign=top;spacingLeft=4;spacingRight=4;overflow=hidden;rotatable=0;points=[[0,0.5],[1,0.5]];portConstraint=eastwest;" parent="D-UneGRkx3yv40T7FV0B-9" vertex="1">
          <mxGeometry y="268" width="220" height="82" as="geometry" />
        </mxCell>
        <mxCell id="D-UneGRkx3yv40T7FV0B-22" value="+ getter/setter" style="text;strokeColor=none;fillColor=none;align=left;verticalAlign=top;spacingLeft=4;spacingRight=4;overflow=hidden;rotatable=0;points=[[0,0.5],[1,0.5]];portConstraint=eastwest;" parent="D-UneGRkx3yv40T7FV0B-9" vertex="1">
          <mxGeometry y="350" width="220" height="26" as="geometry" />
        </mxCell>
        <mxCell id="D-UneGRkx3yv40T7FV0B-21" value="+ boolean equals(Object obj)" style="text;strokeColor=none;fillColor=none;align=left;verticalAlign=top;spacingLeft=4;spacingRight=4;overflow=hidden;rotatable=0;points=[[0,0.5],[1,0.5]];portConstraint=eastwest;" parent="D-UneGRkx3yv40T7FV0B-9" vertex="1">
          <mxGeometry y="376" width="220" height="26" as="geometry" />
        </mxCell>
        <mxCell id="D-UneGRkx3yv40T7FV0B-161" style="edgeStyle=orthogonalEdgeStyle;rounded=0;orthogonalLoop=1;jettySize=auto;html=1;" parent="1" source="D-UneGRkx3yv40T7FV0B-23" target="D-UneGRkx3yv40T7FV0B-17" edge="1">
          <mxGeometry relative="1" as="geometry" />
        </mxCell>
        <mxCell id="D-UneGRkx3yv40T7FV0B-23" value="&lt;Enum&gt;&#xa;Nivel" style="swimlane;fontStyle=0;childLayout=stackLayout;horizontal=1;startSize=40;fillColor=none;horizontalStack=0;resizeParent=1;resizeParentMax=0;resizeLast=0;collapsible=1;marginBottom=0;" parent="1" vertex="1">
          <mxGeometry x="1010" y="1379" width="157" height="144" as="geometry" />
        </mxCell>
        <mxCell id="D-UneGRkx3yv40T7FV0B-24" value="Superusuario" style="text;strokeColor=none;fillColor=none;align=left;verticalAlign=top;spacingLeft=4;spacingRight=4;overflow=hidden;rotatable=0;points=[[0,0.5],[1,0.5]];portConstraint=eastwest;" parent="D-UneGRkx3yv40T7FV0B-23" vertex="1">
          <mxGeometry y="40" width="157" height="26" as="geometry" />
        </mxCell>
        <mxCell id="D-UneGRkx3yv40T7FV0B-25" value="Administrador" style="text;strokeColor=none;fillColor=none;align=left;verticalAlign=top;spacingLeft=4;spacingRight=4;overflow=hidden;rotatable=0;points=[[0,0.5],[1,0.5]];portConstraint=eastwest;" parent="D-UneGRkx3yv40T7FV0B-23" vertex="1">
          <mxGeometry y="66" width="157" height="26" as="geometry" />
        </mxCell>
        <mxCell id="D-UneGRkx3yv40T7FV0B-27" value="Profesor" style="text;strokeColor=none;fillColor=none;align=left;verticalAlign=top;spacingLeft=4;spacingRight=4;overflow=hidden;rotatable=0;points=[[0,0.5],[1,0.5]];portConstraint=eastwest;" parent="D-UneGRkx3yv40T7FV0B-23" vertex="1">
          <mxGeometry y="92" width="157" height="26" as="geometry" />
        </mxCell>
        <mxCell id="D-UneGRkx3yv40T7FV0B-26" value="Equipodirectivo" style="text;strokeColor=none;fillColor=none;align=left;verticalAlign=top;spacingLeft=4;spacingRight=4;overflow=hidden;rotatable=0;points=[[0,0.5],[1,0.5]];portConstraint=eastwest;" parent="D-UneGRkx3yv40T7FV0B-23" vertex="1">
          <mxGeometry y="118" width="157" height="26" as="geometry" />
        </mxCell>
        <mxCell id="D-UneGRkx3yv40T7FV0B-178" style="edgeStyle=orthogonalEdgeStyle;rounded=0;orthogonalLoop=1;jettySize=auto;html=1;" parent="1" source="D-UneGRkx3yv40T7FV0B-28" target="D-UneGRkx3yv40T7FV0B-134" edge="1">
          <mxGeometry relative="1" as="geometry" />
        </mxCell>
        <mxCell id="hdvVi29aJsotizUqz47K-1" style="edgeStyle=orthogonalEdgeStyle;rounded=0;orthogonalLoop=1;jettySize=auto;html=1;" parent="1" source="D-UneGRkx3yv40T7FV0B-28" target="D-UneGRkx3yv40T7FV0B-83" edge="1">
          <mxGeometry relative="1" as="geometry">
            <Array as="points">
              <mxPoint x="650" y="573" />
            </Array>
          </mxGeometry>
        </mxCell>
        <mxCell id="D-UneGRkx3yv40T7FV0B-28" value="MediosTransporte" style="swimlane;fontStyle=1;align=center;verticalAlign=top;childLayout=stackLayout;horizontal=1;startSize=26;horizontalStack=0;resizeParent=1;resizeParentMax=0;resizeLast=0;collapsible=1;marginBottom=0;" parent="1" vertex="1">
          <mxGeometry x="650" y="730" width="160" height="138" as="geometry" />
        </mxCell>
        <mxCell id="D-UneGRkx3yv40T7FV0B-29" value="- id : int" style="text;strokeColor=none;fillColor=none;align=left;verticalAlign=top;spacingLeft=4;spacingRight=4;overflow=hidden;rotatable=0;points=[[0,0.5],[1,0.5]];portConstraint=eastwest;" parent="D-UneGRkx3yv40T7FV0B-28" vertex="1">
          <mxGeometry y="26" width="160" height="26" as="geometry" />
        </mxCell>
        <mxCell id="D-UneGRkx3yv40T7FV0B-32" value="- nombre : String" style="text;strokeColor=none;fillColor=none;align=left;verticalAlign=top;spacingLeft=4;spacingRight=4;overflow=hidden;rotatable=0;points=[[0,0.5],[1,0.5]];portConstraint=eastwest;" parent="D-UneGRkx3yv40T7FV0B-28" vertex="1">
          <mxGeometry y="52" width="160" height="26" as="geometry" />
        </mxCell>
        <mxCell id="D-UneGRkx3yv40T7FV0B-30" value="" style="line;strokeWidth=1;fillColor=none;align=left;verticalAlign=middle;spacingTop=-1;spacingLeft=3;spacingRight=3;rotatable=0;labelPosition=right;points=[];portConstraint=eastwest;" parent="D-UneGRkx3yv40T7FV0B-28" vertex="1">
          <mxGeometry y="78" width="160" height="8" as="geometry" />
        </mxCell>
        <mxCell id="D-UneGRkx3yv40T7FV0B-31" value="+ getter/setter" style="text;strokeColor=none;fillColor=none;align=left;verticalAlign=top;spacingLeft=4;spacingRight=4;overflow=hidden;rotatable=0;points=[[0,0.5],[1,0.5]];portConstraint=eastwest;" parent="D-UneGRkx3yv40T7FV0B-28" vertex="1">
          <mxGeometry y="86" width="160" height="26" as="geometry" />
        </mxCell>
        <mxCell id="D-UneGRkx3yv40T7FV0B-33" value="+ boolean equals(Object obj)" style="text;strokeColor=none;fillColor=none;align=left;verticalAlign=top;spacingLeft=4;spacingRight=4;overflow=hidden;rotatable=0;points=[[0,0.5],[1,0.5]];portConstraint=eastwest;" parent="D-UneGRkx3yv40T7FV0B-28" vertex="1">
          <mxGeometry y="112" width="160" height="26" as="geometry" />
        </mxCell>
        <mxCell id="D-UneGRkx3yv40T7FV0B-159" style="edgeStyle=orthogonalEdgeStyle;rounded=0;orthogonalLoop=1;jettySize=auto;html=1;" parent="1" source="D-UneGRkx3yv40T7FV0B-34" target="D-UneGRkx3yv40T7FV0B-57" edge="1">
          <mxGeometry relative="1" as="geometry" />
        </mxCell>
        <mxCell id="hdvVi29aJsotizUqz47K-3" style="edgeStyle=orthogonalEdgeStyle;rounded=0;orthogonalLoop=1;jettySize=auto;html=1;entryX=1;entryY=0.5;entryDx=0;entryDy=0;" parent="1" source="D-UneGRkx3yv40T7FV0B-34" target="D-UneGRkx3yv40T7FV0B-84" edge="1">
          <mxGeometry relative="1" as="geometry">
            <Array as="points">
              <mxPoint x="215" y="940" />
              <mxPoint x="500" y="940" />
              <mxPoint x="500" y="651" />
            </Array>
          </mxGeometry>
        </mxCell>
        <mxCell id="D-UneGRkx3yv40T7FV0B-34" value="Curso" style="swimlane;fontStyle=1;align=center;verticalAlign=top;childLayout=stackLayout;horizontal=1;startSize=26;horizontalStack=0;resizeParent=1;resizeParentMax=0;resizeLast=0;collapsible=1;marginBottom=0;" parent="1" vertex="1">
          <mxGeometry x="130" y="990" width="170" height="298" as="geometry" />
        </mxCell>
        <mxCell id="D-UneGRkx3yv40T7FV0B-35" value="- id : int" style="text;strokeColor=none;fillColor=none;align=left;verticalAlign=top;spacingLeft=4;spacingRight=4;overflow=hidden;rotatable=0;points=[[0,0.5],[1,0.5]];portConstraint=eastwest;" parent="D-UneGRkx3yv40T7FV0B-34" vertex="1">
          <mxGeometry y="26" width="170" height="26" as="geometry" />
        </mxCell>
        <mxCell id="D-UneGRkx3yv40T7FV0B-38" value="- codigo : String" style="text;strokeColor=none;fillColor=none;align=left;verticalAlign=top;spacingLeft=4;spacingRight=4;overflow=hidden;rotatable=0;points=[[0,0.5],[1,0.5]];portConstraint=eastwest;" parent="D-UneGRkx3yv40T7FV0B-34" vertex="1">
          <mxGeometry y="52" width="170" height="26" as="geometry" />
        </mxCell>
        <mxCell id="D-UneGRkx3yv40T7FV0B-40" value="- descripcion : String" style="text;strokeColor=none;fillColor=none;align=left;verticalAlign=top;spacingLeft=4;spacingRight=4;overflow=hidden;rotatable=0;points=[[0,0.5],[1,0.5]];portConstraint=eastwest;" parent="D-UneGRkx3yv40T7FV0B-34" vertex="1">
          <mxGeometry y="78" width="170" height="26" as="geometry" />
        </mxCell>
        <mxCell id="D-UneGRkx3yv40T7FV0B-41" value="- etapa : Etapa" style="text;strokeColor=none;fillColor=none;align=left;verticalAlign=top;spacingLeft=4;spacingRight=4;overflow=hidden;rotatable=0;points=[[0,0.5],[1,0.5]];portConstraint=eastwest;" parent="D-UneGRkx3yv40T7FV0B-34" vertex="1">
          <mxGeometry y="104" width="170" height="26" as="geometry" />
        </mxCell>
        <mxCell id="D-UneGRkx3yv40T7FV0B-39" value="- activo : boolean" style="text;strokeColor=none;fillColor=none;align=left;verticalAlign=top;spacingLeft=4;spacingRight=4;overflow=hidden;rotatable=0;points=[[0,0.5],[1,0.5]];portConstraint=eastwest;" parent="D-UneGRkx3yv40T7FV0B-34" vertex="1">
          <mxGeometry y="130" width="170" height="26" as="geometry" />
        </mxCell>
        <mxCell id="D-UneGRkx3yv40T7FV0B-36" value="" style="line;strokeWidth=1;fillColor=none;align=left;verticalAlign=middle;spacingTop=-1;spacingLeft=3;spacingRight=3;rotatable=0;labelPosition=right;points=[];portConstraint=eastwest;" parent="D-UneGRkx3yv40T7FV0B-34" vertex="1">
          <mxGeometry y="156" width="170" height="8" as="geometry" />
        </mxCell>
        <mxCell id="D-UneGRkx3yv40T7FV0B-37" value="+ Curso( codigo : String, &#xa;descripcion : String, etapa :&#xa;Etapa, activo : boolean)" style="text;strokeColor=none;fillColor=none;align=left;verticalAlign=top;spacingLeft=4;spacingRight=4;overflow=hidden;rotatable=0;points=[[0,0.5],[1,0.5]];portConstraint=eastwest;" parent="D-UneGRkx3yv40T7FV0B-34" vertex="1">
          <mxGeometry y="164" width="170" height="56" as="geometry" />
        </mxCell>
        <mxCell id="D-UneGRkx3yv40T7FV0B-44" value="+ getter/setter&#xa;" style="text;strokeColor=none;fillColor=none;align=left;verticalAlign=top;spacingLeft=4;spacingRight=4;overflow=hidden;rotatable=0;points=[[0,0.5],[1,0.5]];portConstraint=eastwest;" parent="D-UneGRkx3yv40T7FV0B-34" vertex="1">
          <mxGeometry y="220" width="170" height="26" as="geometry" />
        </mxCell>
        <mxCell id="D-UneGRkx3yv40T7FV0B-43" value="+ int getNumAlumnos()" style="text;strokeColor=none;fillColor=none;align=left;verticalAlign=top;spacingLeft=4;spacingRight=4;overflow=hidden;rotatable=0;points=[[0,0.5],[1,0.5]];portConstraint=eastwest;" parent="D-UneGRkx3yv40T7FV0B-34" vertex="1">
          <mxGeometry y="246" width="170" height="26" as="geometry" />
        </mxCell>
        <mxCell id="D-UneGRkx3yv40T7FV0B-42" value="+ boolean equals(Object obj)" style="text;strokeColor=none;fillColor=none;align=left;verticalAlign=top;spacingLeft=4;spacingRight=4;overflow=hidden;rotatable=0;points=[[0,0.5],[1,0.5]];portConstraint=eastwest;" parent="D-UneGRkx3yv40T7FV0B-34" vertex="1">
          <mxGeometry y="272" width="170" height="26" as="geometry" />
        </mxCell>
        <mxCell id="D-UneGRkx3yv40T7FV0B-158" style="edgeStyle=orthogonalEdgeStyle;rounded=0;orthogonalLoop=1;jettySize=auto;html=1;entryX=0;entryY=0.5;entryDx=0;entryDy=0;" parent="1" source="D-UneGRkx3yv40T7FV0B-45" target="D-UneGRkx3yv40T7FV0B-41" edge="1">
          <mxGeometry relative="1" as="geometry" />
        </mxCell>
        <mxCell id="D-UneGRkx3yv40T7FV0B-45" value="&lt;Enum&gt;&#xa;Etapa" style="swimlane;fontStyle=0;childLayout=stackLayout;horizontal=1;startSize=50;fillColor=none;horizontalStack=0;resizeParent=1;resizeParentMax=0;resizeLast=0;collapsible=1;marginBottom=0;" parent="1" vertex="1">
          <mxGeometry x="20" y="1338" width="140" height="206" as="geometry" />
        </mxCell>
        <mxCell id="D-UneGRkx3yv40T7FV0B-46" value="ESO" style="text;strokeColor=none;fillColor=none;align=left;verticalAlign=top;spacingLeft=4;spacingRight=4;overflow=hidden;rotatable=0;points=[[0,0.5],[1,0.5]];portConstraint=eastwest;" parent="D-UneGRkx3yv40T7FV0B-45" vertex="1">
          <mxGeometry y="50" width="140" height="26" as="geometry" />
        </mxCell>
        <mxCell id="D-UneGRkx3yv40T7FV0B-47" value="Bachillerato" style="text;strokeColor=none;fillColor=none;align=left;verticalAlign=top;spacingLeft=4;spacingRight=4;overflow=hidden;rotatable=0;points=[[0,0.5],[1,0.5]];portConstraint=eastwest;" parent="D-UneGRkx3yv40T7FV0B-45" vertex="1">
          <mxGeometry y="76" width="140" height="26" as="geometry" />
        </mxCell>
        <mxCell id="D-UneGRkx3yv40T7FV0B-49" value="FPGS" style="text;strokeColor=none;fillColor=none;align=left;verticalAlign=top;spacingLeft=4;spacingRight=4;overflow=hidden;rotatable=0;points=[[0,0.5],[1,0.5]];portConstraint=eastwest;" parent="D-UneGRkx3yv40T7FV0B-45" vertex="1">
          <mxGeometry y="102" width="140" height="26" as="geometry" />
        </mxCell>
        <mxCell id="D-UneGRkx3yv40T7FV0B-50" value="FPGM" style="text;strokeColor=none;fillColor=none;align=left;verticalAlign=top;spacingLeft=4;spacingRight=4;overflow=hidden;rotatable=0;points=[[0,0.5],[1,0.5]];portConstraint=eastwest;" parent="D-UneGRkx3yv40T7FV0B-45" vertex="1">
          <mxGeometry y="128" width="140" height="26" as="geometry" />
        </mxCell>
        <mxCell id="D-UneGRkx3yv40T7FV0B-51" value="FPB" style="text;strokeColor=none;fillColor=none;align=left;verticalAlign=top;spacingLeft=4;spacingRight=4;overflow=hidden;rotatable=0;points=[[0,0.5],[1,0.5]];portConstraint=eastwest;" parent="D-UneGRkx3yv40T7FV0B-45" vertex="1">
          <mxGeometry y="154" width="140" height="26" as="geometry" />
        </mxCell>
        <mxCell id="D-UneGRkx3yv40T7FV0B-48" value="FPCE" style="text;strokeColor=none;fillColor=none;align=left;verticalAlign=top;spacingLeft=4;spacingRight=4;overflow=hidden;rotatable=0;points=[[0,0.5],[1,0.5]];portConstraint=eastwest;" parent="D-UneGRkx3yv40T7FV0B-45" vertex="1">
          <mxGeometry y="180" width="140" height="26" as="geometry" />
        </mxCell>
        <mxCell id="D-UneGRkx3yv40T7FV0B-176" style="edgeStyle=orthogonalEdgeStyle;rounded=0;orthogonalLoop=1;jettySize=auto;html=1;entryX=1;entryY=0.5;entryDx=0;entryDy=0;" parent="1" source="D-UneGRkx3yv40T7FV0B-52" target="D-UneGRkx3yv40T7FV0B-85" edge="1">
          <mxGeometry relative="1" as="geometry" />
        </mxCell>
        <mxCell id="hdvVi29aJsotizUqz47K-2" style="edgeStyle=orthogonalEdgeStyle;rounded=0;orthogonalLoop=1;jettySize=auto;html=1;startArrow=none;" parent="1" source="hdvVi29aJsotizUqz47K-59" target="D-UneGRkx3yv40T7FV0B-138" edge="1">
          <mxGeometry relative="1" as="geometry">
            <Array as="points">
              <mxPoint x="900" y="748" />
            </Array>
          </mxGeometry>
        </mxCell>
        <mxCell id="D-UneGRkx3yv40T7FV0B-52" value="Grupo" style="swimlane;fontStyle=1;align=center;verticalAlign=top;childLayout=stackLayout;horizontal=1;startSize=26;horizontalStack=0;resizeParent=1;resizeParentMax=0;resizeLast=0;collapsible=1;marginBottom=0;" parent="1" vertex="1">
          <mxGeometry x="380" y="1040" width="180" height="272" as="geometry" />
        </mxCell>
        <mxCell id="D-UneGRkx3yv40T7FV0B-53" value="- id : int" style="text;strokeColor=none;fillColor=none;align=left;verticalAlign=top;spacingLeft=4;spacingRight=4;overflow=hidden;rotatable=0;points=[[0,0.5],[1,0.5]];portConstraint=eastwest;" parent="D-UneGRkx3yv40T7FV0B-52" vertex="1">
          <mxGeometry y="26" width="180" height="26" as="geometry" />
        </mxCell>
        <mxCell id="D-UneGRkx3yv40T7FV0B-57" value="- curso : Curso" style="text;strokeColor=none;fillColor=none;align=left;verticalAlign=top;spacingLeft=4;spacingRight=4;overflow=hidden;rotatable=0;points=[[0,0.5],[1,0.5]];portConstraint=eastwest;" parent="D-UneGRkx3yv40T7FV0B-52" vertex="1">
          <mxGeometry y="52" width="180" height="26" as="geometry" />
        </mxCell>
        <mxCell id="D-UneGRkx3yv40T7FV0B-58" value="- codigo : String" style="text;strokeColor=none;fillColor=none;align=left;verticalAlign=top;spacingLeft=4;spacingRight=4;overflow=hidden;rotatable=0;points=[[0,0.5],[1,0.5]];portConstraint=eastwest;" parent="D-UneGRkx3yv40T7FV0B-52" vertex="1">
          <mxGeometry y="78" width="180" height="26" as="geometry" />
        </mxCell>
        <mxCell id="D-UneGRkx3yv40T7FV0B-59" value="- num_alumnos : int" style="text;strokeColor=none;fillColor=none;align=left;verticalAlign=top;spacingLeft=4;spacingRight=4;overflow=hidden;rotatable=0;points=[[0,0.5],[1,0.5]];portConstraint=eastwest;" parent="D-UneGRkx3yv40T7FV0B-52" vertex="1">
          <mxGeometry y="104" width="180" height="26" as="geometry" />
        </mxCell>
        <mxCell id="D-UneGRkx3yv40T7FV0B-56" value="- activo : boolean" style="text;strokeColor=none;fillColor=none;align=left;verticalAlign=top;spacingLeft=4;spacingRight=4;overflow=hidden;rotatable=0;points=[[0,0.5],[1,0.5]];portConstraint=eastwest;" parent="D-UneGRkx3yv40T7FV0B-52" vertex="1">
          <mxGeometry y="130" width="180" height="26" as="geometry" />
        </mxCell>
        <mxCell id="D-UneGRkx3yv40T7FV0B-54" value="" style="line;strokeWidth=1;fillColor=none;align=left;verticalAlign=middle;spacingTop=-1;spacingLeft=3;spacingRight=3;rotatable=0;labelPosition=right;points=[];portConstraint=eastwest;" parent="D-UneGRkx3yv40T7FV0B-52" vertex="1">
          <mxGeometry y="156" width="180" height="8" as="geometry" />
        </mxCell>
        <mxCell id="D-UneGRkx3yv40T7FV0B-61" value="+ Grupo(curso : Curso, codigo :&#xa;String, num_alumnos : int, &#xa;activo : boolean" style="text;strokeColor=none;fillColor=none;align=left;verticalAlign=top;spacingLeft=4;spacingRight=4;overflow=hidden;rotatable=0;points=[[0,0.5],[1,0.5]];portConstraint=eastwest;" parent="D-UneGRkx3yv40T7FV0B-52" vertex="1">
          <mxGeometry y="164" width="180" height="56" as="geometry" />
        </mxCell>
        <mxCell id="D-UneGRkx3yv40T7FV0B-62" value="+ getter/setter&#xa;" style="text;strokeColor=none;fillColor=none;align=left;verticalAlign=top;spacingLeft=4;spacingRight=4;overflow=hidden;rotatable=0;points=[[0,0.5],[1,0.5]];portConstraint=eastwest;" parent="D-UneGRkx3yv40T7FV0B-52" vertex="1">
          <mxGeometry y="220" width="180" height="26" as="geometry" />
        </mxCell>
        <mxCell id="D-UneGRkx3yv40T7FV0B-55" value="+ boolean equals(Object obj)" style="text;strokeColor=none;fillColor=none;align=left;verticalAlign=top;spacingLeft=4;spacingRight=4;overflow=hidden;rotatable=0;points=[[0,0.5],[1,0.5]];portConstraint=eastwest;" parent="D-UneGRkx3yv40T7FV0B-52" vertex="1">
          <mxGeometry y="246" width="180" height="26" as="geometry" />
        </mxCell>
        <mxCell id="D-UneGRkx3yv40T7FV0B-63" value="Solicitud" style="swimlane;fontStyle=1;align=center;verticalAlign=top;childLayout=stackLayout;horizontal=1;startSize=26;horizontalStack=0;resizeParent=1;resizeParentMax=0;resizeLast=0;collapsible=1;marginBottom=0;" parent="1" vertex="1">
          <mxGeometry x="90" y="170" width="340" height="756" as="geometry" />
        </mxCell>
        <mxCell id="D-UneGRkx3yv40T7FV0B-64" value="- id_solicitud : int" style="text;strokeColor=none;fillColor=none;align=left;verticalAlign=top;spacingLeft=4;spacingRight=4;overflow=hidden;rotatable=0;points=[[0,0.5],[1,0.5]];portConstraint=eastwest;" parent="D-UneGRkx3yv40T7FV0B-63" vertex="1">
          <mxGeometry y="26" width="340" height="26" as="geometry" />
        </mxCell>
        <mxCell id="D-UneGRkx3yv40T7FV0B-67" value="- solicitante : Profesor" style="text;strokeColor=none;fillColor=none;align=left;verticalAlign=top;spacingLeft=4;spacingRight=4;overflow=hidden;rotatable=0;points=[[0,0.5],[1,0.5]];portConstraint=eastwest;" parent="D-UneGRkx3yv40T7FV0B-63" vertex="1">
          <mxGeometry y="52" width="340" height="26" as="geometry" />
        </mxCell>
        <mxCell id="D-UneGRkx3yv40T7FV0B-69" value="- titulo : String" style="text;strokeColor=none;fillColor=none;align=left;verticalAlign=top;spacingLeft=4;spacingRight=4;overflow=hidden;rotatable=0;points=[[0,0.5],[1,0.5]];portConstraint=eastwest;" parent="D-UneGRkx3yv40T7FV0B-63" vertex="1">
          <mxGeometry y="78" width="340" height="26" as="geometry" />
        </mxCell>
        <mxCell id="D-UneGRkx3yv40T7FV0B-71" value="- tipo : TipoActividad" style="text;strokeColor=none;fillColor=none;align=left;verticalAlign=top;spacingLeft=4;spacingRight=4;overflow=hidden;rotatable=0;points=[[0,0.5],[1,0.5]];portConstraint=eastwest;" parent="D-UneGRkx3yv40T7FV0B-63" vertex="1">
          <mxGeometry y="104" width="340" height="26" as="geometry" />
        </mxCell>
        <mxCell id="D-UneGRkx3yv40T7FV0B-72" value="- fini : LocalDate" style="text;strokeColor=none;fillColor=none;align=left;verticalAlign=top;spacingLeft=4;spacingRight=4;overflow=hidden;rotatable=0;points=[[0,0.5],[1,0.5]];portConstraint=eastwest;" parent="D-UneGRkx3yv40T7FV0B-63" vertex="1">
          <mxGeometry y="130" width="340" height="26" as="geometry" />
        </mxCell>
        <mxCell id="D-UneGRkx3yv40T7FV0B-73" value="- ffin : LocalDate" style="text;strokeColor=none;fillColor=none;align=left;verticalAlign=top;spacingLeft=4;spacingRight=4;overflow=hidden;rotatable=0;points=[[0,0.5],[1,0.5]];portConstraint=eastwest;" parent="D-UneGRkx3yv40T7FV0B-63" vertex="1">
          <mxGeometry y="156" width="340" height="26" as="geometry" />
        </mxCell>
        <mxCell id="D-UneGRkx3yv40T7FV0B-75" value="- hini : LocalTime" style="text;strokeColor=none;fillColor=none;align=left;verticalAlign=top;spacingLeft=4;spacingRight=4;overflow=hidden;rotatable=0;points=[[0,0.5],[1,0.5]];portConstraint=eastwest;" parent="D-UneGRkx3yv40T7FV0B-63" vertex="1">
          <mxGeometry y="182" width="340" height="26" as="geometry" />
        </mxCell>
        <mxCell id="D-UneGRkx3yv40T7FV0B-74" value="- hfin : LocalTime" style="text;strokeColor=none;fillColor=none;align=left;verticalAlign=top;spacingLeft=4;spacingRight=4;overflow=hidden;rotatable=0;points=[[0,0.5],[1,0.5]];portConstraint=eastwest;" parent="D-UneGRkx3yv40T7FV0B-63" vertex="1">
          <mxGeometry y="208" width="340" height="26" as="geometry" />
        </mxCell>
        <mxCell id="D-UneGRkx3yv40T7FV0B-76" value="- previsto : boolean" style="text;strokeColor=none;fillColor=none;align=left;verticalAlign=top;spacingLeft=4;spacingRight=4;overflow=hidden;rotatable=0;points=[[0,0.5],[1,0.5]];portConstraint=eastwest;" parent="D-UneGRkx3yv40T7FV0B-63" vertex="1">
          <mxGeometry y="234" width="340" height="26" as="geometry" />
        </mxCell>
        <mxCell id="D-UneGRkx3yv40T7FV0B-70" value="- transp_requerido : boolean" style="text;strokeColor=none;fillColor=none;align=left;verticalAlign=top;spacingLeft=4;spacingRight=4;overflow=hidden;rotatable=0;points=[[0,0.5],[1,0.5]];portConstraint=eastwest;" parent="D-UneGRkx3yv40T7FV0B-63" vertex="1">
          <mxGeometry y="260" width="340" height="26" as="geometry" />
        </mxCell>
        <mxCell id="D-UneGRkx3yv40T7FV0B-68" value="- transp_comentario : String" style="text;strokeColor=none;fillColor=none;align=left;verticalAlign=top;spacingLeft=4;spacingRight=4;overflow=hidden;rotatable=0;points=[[0,0.5],[1,0.5]];portConstraint=eastwest;" parent="D-UneGRkx3yv40T7FV0B-63" vertex="1">
          <mxGeometry y="286" width="340" height="26" as="geometry" />
        </mxCell>
        <mxCell id="D-UneGRkx3yv40T7FV0B-78" value="- comentario : String" style="text;strokeColor=none;fillColor=none;align=left;verticalAlign=top;spacingLeft=4;spacingRight=4;overflow=hidden;rotatable=0;points=[[0,0.5],[1,0.5]];portConstraint=eastwest;" parent="D-UneGRkx3yv40T7FV0B-63" vertex="1">
          <mxGeometry y="312" width="340" height="26" as="geometry" />
        </mxCell>
        <mxCell id="D-UneGRkx3yv40T7FV0B-79" value="- estado : EstadoActividad" style="text;strokeColor=none;fillColor=none;align=left;verticalAlign=top;spacingLeft=4;spacingRight=4;overflow=hidden;rotatable=0;points=[[0,0.5],[1,0.5]];portConstraint=eastwest;" parent="D-UneGRkx3yv40T7FV0B-63" vertex="1">
          <mxGeometry y="338" width="340" height="26" as="geometry" />
        </mxCell>
        <mxCell id="D-UneGRkx3yv40T7FV0B-77" value="- estado_comentario : String" style="text;strokeColor=none;fillColor=none;align=left;verticalAlign=top;spacingLeft=4;spacingRight=4;overflow=hidden;rotatable=0;points=[[0,0.5],[1,0.5]];portConstraint=eastwest;" parent="D-UneGRkx3yv40T7FV0B-63" vertex="1">
          <mxGeometry y="364" width="340" height="26" as="geometry" />
        </mxCell>
        <mxCell id="D-UneGRkx3yv40T7FV0B-83" value="- transportes : List&lt;MediosTransportes&gt;" style="text;strokeColor=none;fillColor=none;align=left;verticalAlign=top;spacingLeft=4;spacingRight=4;overflow=hidden;rotatable=0;points=[[0,0.5],[1,0.5]];portConstraint=eastwest;" parent="D-UneGRkx3yv40T7FV0B-63" vertex="1">
          <mxGeometry y="390" width="340" height="26" as="geometry" />
        </mxCell>
        <mxCell id="D-UneGRkx3yv40T7FV0B-82" value="- responsables : List&lt;Profesor&gt;" style="text;strokeColor=none;fillColor=none;align=left;verticalAlign=top;spacingLeft=4;spacingRight=4;overflow=hidden;rotatable=0;points=[[0,0.5],[1,0.5]];portConstraint=eastwest;" parent="D-UneGRkx3yv40T7FV0B-63" vertex="1">
          <mxGeometry y="416" width="340" height="26" as="geometry" />
        </mxCell>
        <mxCell id="D-UneGRkx3yv40T7FV0B-80" value="- participante : List&lt;Profesor&gt;" style="text;strokeColor=none;fillColor=none;align=left;verticalAlign=top;spacingLeft=4;spacingRight=4;overflow=hidden;rotatable=0;points=[[0,0.5],[1,0.5]];portConstraint=eastwest;" parent="D-UneGRkx3yv40T7FV0B-63" vertex="1">
          <mxGeometry y="442" width="340" height="26" as="geometry" />
        </mxCell>
        <mxCell id="D-UneGRkx3yv40T7FV0B-84" value="- cursos : List&lt;Curso&gt;" style="text;strokeColor=none;fillColor=none;align=left;verticalAlign=top;spacingLeft=4;spacingRight=4;overflow=hidden;rotatable=0;points=[[0,0.5],[1,0.5]];portConstraint=eastwest;" parent="D-UneGRkx3yv40T7FV0B-63" vertex="1">
          <mxGeometry y="468" width="340" height="26" as="geometry" />
        </mxCell>
        <mxCell id="D-UneGRkx3yv40T7FV0B-85" value="- grupos : List&lt;Grupo&gt;" style="text;strokeColor=none;fillColor=none;align=left;verticalAlign=top;spacingLeft=4;spacingRight=4;overflow=hidden;rotatable=0;points=[[0,0.5],[1,0.5]];portConstraint=eastwest;" parent="D-UneGRkx3yv40T7FV0B-63" vertex="1">
          <mxGeometry y="494" width="340" height="26" as="geometry" />
        </mxCell>
        <mxCell id="D-UneGRkx3yv40T7FV0B-65" value="" style="line;strokeWidth=1;fillColor=none;align=left;verticalAlign=middle;spacingTop=-1;spacingLeft=3;spacingRight=3;rotatable=0;labelPosition=right;points=[];portConstraint=eastwest;" parent="D-UneGRkx3yv40T7FV0B-63" vertex="1">
          <mxGeometry y="520" width="340" height="8" as="geometry" />
        </mxCell>
        <mxCell id="D-UneGRkx3yv40T7FV0B-86" value="+ Solicitud(solicitante : Profesor,&#xa;titulo : String, tipo : TipoActividad,&#xa;fini : LocalDate, ffin : LocalDate,&#xa;hini : LocalTime, hfin : LocalTime,&#xa;previsto : boolean, transp_requerido : boolean,&#xa;transp_comentario : String,&#xa;comentario : String, estado : EtadoActividad,&#xa;estado_comentario : String, &#xa;numAlumnos : int, transportes : List&lt;MediosTransporte&gt;,&#xa;responsables : List&lt;Profesor&gt;, participantes : List&lt;Profesor&gt;,&#xa;cursos : List&lt;Curso&gt;, grupos : List&lt;Grupo&gt;" style="text;strokeColor=none;fillColor=none;align=left;verticalAlign=top;spacingLeft=4;spacingRight=4;overflow=hidden;rotatable=0;points=[[0,0.5],[1,0.5]];portConstraint=eastwest;" parent="D-UneGRkx3yv40T7FV0B-63" vertex="1">
          <mxGeometry y="528" width="340" height="176" as="geometry" />
        </mxCell>
        <mxCell id="D-UneGRkx3yv40T7FV0B-87" value="+ getter/setter" style="text;strokeColor=none;fillColor=none;align=left;verticalAlign=top;spacingLeft=4;spacingRight=4;overflow=hidden;rotatable=0;points=[[0,0.5],[1,0.5]];portConstraint=eastwest;" parent="D-UneGRkx3yv40T7FV0B-63" vertex="1">
          <mxGeometry y="704" width="340" height="26" as="geometry" />
        </mxCell>
        <mxCell id="D-UneGRkx3yv40T7FV0B-66" value="+ boolean equals(Object obj)" style="text;strokeColor=none;fillColor=none;align=left;verticalAlign=top;spacingLeft=4;spacingRight=4;overflow=hidden;rotatable=0;points=[[0,0.5],[1,0.5]];portConstraint=eastwest;" parent="D-UneGRkx3yv40T7FV0B-63" vertex="1">
          <mxGeometry y="730" width="340" height="26" as="geometry" />
        </mxCell>
        <mxCell id="D-UneGRkx3yv40T7FV0B-162" style="edgeStyle=orthogonalEdgeStyle;rounded=0;orthogonalLoop=1;jettySize=auto;html=1;" parent="1" source="D-UneGRkx3yv40T7FV0B-90" target="D-UneGRkx3yv40T7FV0B-122" edge="1">
          <mxGeometry relative="1" as="geometry" />
        </mxCell>
        <mxCell id="D-UneGRkx3yv40T7FV0B-163" style="edgeStyle=orthogonalEdgeStyle;rounded=0;orthogonalLoop=1;jettySize=auto;html=1;" parent="1" source="D-UneGRkx3yv40T7FV0B-90" target="D-UneGRkx3yv40T7FV0B-71" edge="1">
          <mxGeometry relative="1" as="geometry" />
        </mxCell>
        <mxCell id="D-UneGRkx3yv40T7FV0B-90" value="&lt;Enum&gt;&#xa;TipoActividad" style="swimlane;fontStyle=0;childLayout=stackLayout;horizontal=1;startSize=50;fillColor=none;horizontalStack=0;resizeParent=1;resizeParentMax=0;resizeLast=0;collapsible=1;marginBottom=0;" parent="1" vertex="1">
          <mxGeometry x="640" y="70" width="140" height="102" as="geometry" />
        </mxCell>
        <mxCell id="D-UneGRkx3yv40T7FV0B-91" value="Extraescolar" style="text;strokeColor=none;fillColor=none;align=left;verticalAlign=top;spacingLeft=4;spacingRight=4;overflow=hidden;rotatable=0;points=[[0,0.5],[1,0.5]];portConstraint=eastwest;" parent="D-UneGRkx3yv40T7FV0B-90" vertex="1">
          <mxGeometry y="50" width="140" height="26" as="geometry" />
        </mxCell>
        <mxCell id="D-UneGRkx3yv40T7FV0B-92" value="Complementaria" style="text;strokeColor=none;fillColor=none;align=left;verticalAlign=top;spacingLeft=4;spacingRight=4;overflow=hidden;rotatable=0;points=[[0,0.5],[1,0.5]];portConstraint=eastwest;" parent="D-UneGRkx3yv40T7FV0B-90" vertex="1">
          <mxGeometry y="76" width="140" height="26" as="geometry" />
        </mxCell>
        <mxCell id="D-UneGRkx3yv40T7FV0B-164" style="edgeStyle=orthogonalEdgeStyle;rounded=0;orthogonalLoop=1;jettySize=auto;html=1;" parent="1" source="D-UneGRkx3yv40T7FV0B-97" target="D-UneGRkx3yv40T7FV0B-131" edge="1">
          <mxGeometry relative="1" as="geometry" />
        </mxCell>
        <mxCell id="D-UneGRkx3yv40T7FV0B-165" style="edgeStyle=orthogonalEdgeStyle;rounded=0;orthogonalLoop=1;jettySize=auto;html=1;" parent="1" source="D-UneGRkx3yv40T7FV0B-97" target="D-UneGRkx3yv40T7FV0B-79" edge="1">
          <mxGeometry relative="1" as="geometry" />
        </mxCell>
        <mxCell id="D-UneGRkx3yv40T7FV0B-97" value="&lt;Enum&gt;&#xa;EstadoActividad" style="swimlane;fontStyle=0;childLayout=stackLayout;horizontal=1;startSize=50;fillColor=none;horizontalStack=0;resizeParent=1;resizeParentMax=0;resizeLast=0;collapsible=1;marginBottom=0;" parent="1" vertex="1">
          <mxGeometry x="669" y="431" width="120" height="154" as="geometry" />
        </mxCell>
        <mxCell id="D-UneGRkx3yv40T7FV0B-98" value="Aprobada" style="text;strokeColor=none;fillColor=none;align=left;verticalAlign=top;spacingLeft=4;spacingRight=4;overflow=hidden;rotatable=0;points=[[0,0.5],[1,0.5]];portConstraint=eastwest;" parent="D-UneGRkx3yv40T7FV0B-97" vertex="1">
          <mxGeometry y="50" width="120" height="26" as="geometry" />
        </mxCell>
        <mxCell id="D-UneGRkx3yv40T7FV0B-99" value="Solicitada" style="text;strokeColor=none;fillColor=none;align=left;verticalAlign=top;spacingLeft=4;spacingRight=4;overflow=hidden;rotatable=0;points=[[0,0.5],[1,0.5]];portConstraint=eastwest;" parent="D-UneGRkx3yv40T7FV0B-97" vertex="1">
          <mxGeometry y="76" width="120" height="26" as="geometry" />
        </mxCell>
        <mxCell id="D-UneGRkx3yv40T7FV0B-101" value="Denegada" style="text;strokeColor=none;fillColor=none;align=left;verticalAlign=top;spacingLeft=4;spacingRight=4;overflow=hidden;rotatable=0;points=[[0,0.5],[1,0.5]];portConstraint=eastwest;" parent="D-UneGRkx3yv40T7FV0B-97" vertex="1">
          <mxGeometry y="102" width="120" height="26" as="geometry" />
        </mxCell>
        <mxCell id="D-UneGRkx3yv40T7FV0B-100" value="Realizada" style="text;strokeColor=none;fillColor=none;align=left;verticalAlign=top;spacingLeft=4;spacingRight=4;overflow=hidden;rotatable=0;points=[[0,0.5],[1,0.5]];portConstraint=eastwest;" parent="D-UneGRkx3yv40T7FV0B-97" vertex="1">
          <mxGeometry y="128" width="120" height="26" as="geometry" />
        </mxCell>
        <mxCell id="D-UneGRkx3yv40T7FV0B-118" value="Programada" style="swimlane;fontStyle=1;align=center;verticalAlign=top;childLayout=stackLayout;horizontal=1;startSize=26;horizontalStack=0;resizeParent=1;resizeParentMax=0;resizeLast=0;collapsible=1;marginBottom=0;" parent="1" vertex="1">
          <mxGeometry x="1000" y="163" width="360" height="834" as="geometry" />
        </mxCell>
        <mxCell id="D-UneGRkx3yv40T7FV0B-143" value="- id_programada : int" style="text;strokeColor=none;fillColor=none;align=left;verticalAlign=top;spacingLeft=4;spacingRight=4;overflow=hidden;rotatable=0;points=[[0,0.5],[1,0.5]];portConstraint=eastwest;" parent="D-UneGRkx3yv40T7FV0B-118" vertex="1">
          <mxGeometry y="26" width="360" height="26" as="geometry" />
        </mxCell>
        <mxCell id="D-UneGRkx3yv40T7FV0B-119" value="- solicitud : Solicitud" style="text;strokeColor=none;fillColor=none;align=left;verticalAlign=top;spacingLeft=4;spacingRight=4;overflow=hidden;rotatable=0;points=[[0,0.5],[1,0.5]];portConstraint=eastwest;" parent="D-UneGRkx3yv40T7FV0B-118" vertex="1">
          <mxGeometry y="52" width="360" height="26" as="geometry" />
        </mxCell>
        <mxCell id="D-UneGRkx3yv40T7FV0B-120" value="- solicitante : Profesor" style="text;strokeColor=none;fillColor=none;align=left;verticalAlign=top;spacingLeft=4;spacingRight=4;overflow=hidden;rotatable=0;points=[[0,0.5],[1,0.5]];portConstraint=eastwest;" parent="D-UneGRkx3yv40T7FV0B-118" vertex="1">
          <mxGeometry y="78" width="360" height="26" as="geometry" />
        </mxCell>
        <mxCell id="D-UneGRkx3yv40T7FV0B-121" value="- titulo : String" style="text;strokeColor=none;fillColor=none;align=left;verticalAlign=top;spacingLeft=4;spacingRight=4;overflow=hidden;rotatable=0;points=[[0,0.5],[1,0.5]];portConstraint=eastwest;" parent="D-UneGRkx3yv40T7FV0B-118" vertex="1">
          <mxGeometry y="104" width="360" height="26" as="geometry" />
        </mxCell>
        <mxCell id="D-UneGRkx3yv40T7FV0B-122" value="- tipo : TipoActividad" style="text;strokeColor=none;fillColor=none;align=left;verticalAlign=top;spacingLeft=4;spacingRight=4;overflow=hidden;rotatable=0;points=[[0,0.5],[1,0.5]];portConstraint=eastwest;" parent="D-UneGRkx3yv40T7FV0B-118" vertex="1">
          <mxGeometry y="130" width="360" height="26" as="geometry" />
        </mxCell>
        <mxCell id="D-UneGRkx3yv40T7FV0B-123" value="- fini : LocalDate" style="text;strokeColor=none;fillColor=none;align=left;verticalAlign=top;spacingLeft=4;spacingRight=4;overflow=hidden;rotatable=0;points=[[0,0.5],[1,0.5]];portConstraint=eastwest;" parent="D-UneGRkx3yv40T7FV0B-118" vertex="1">
          <mxGeometry y="156" width="360" height="26" as="geometry" />
        </mxCell>
        <mxCell id="D-UneGRkx3yv40T7FV0B-124" value="- ffin : LocalDate" style="text;strokeColor=none;fillColor=none;align=left;verticalAlign=top;spacingLeft=4;spacingRight=4;overflow=hidden;rotatable=0;points=[[0,0.5],[1,0.5]];portConstraint=eastwest;" parent="D-UneGRkx3yv40T7FV0B-118" vertex="1">
          <mxGeometry y="182" width="360" height="26" as="geometry" />
        </mxCell>
        <mxCell id="D-UneGRkx3yv40T7FV0B-125" value="- hini : LocalTime" style="text;strokeColor=none;fillColor=none;align=left;verticalAlign=top;spacingLeft=4;spacingRight=4;overflow=hidden;rotatable=0;points=[[0,0.5],[1,0.5]];portConstraint=eastwest;" parent="D-UneGRkx3yv40T7FV0B-118" vertex="1">
          <mxGeometry y="208" width="360" height="26" as="geometry" />
        </mxCell>
        <mxCell id="D-UneGRkx3yv40T7FV0B-126" value="- hfin : LocalTime" style="text;strokeColor=none;fillColor=none;align=left;verticalAlign=top;spacingLeft=4;spacingRight=4;overflow=hidden;rotatable=0;points=[[0,0.5],[1,0.5]];portConstraint=eastwest;" parent="D-UneGRkx3yv40T7FV0B-118" vertex="1">
          <mxGeometry y="234" width="360" height="26" as="geometry" />
        </mxCell>
        <mxCell id="D-UneGRkx3yv40T7FV0B-127" value="- previsto : boolean" style="text;strokeColor=none;fillColor=none;align=left;verticalAlign=top;spacingLeft=4;spacingRight=4;overflow=hidden;rotatable=0;points=[[0,0.5],[1,0.5]];portConstraint=eastwest;" parent="D-UneGRkx3yv40T7FV0B-118" vertex="1">
          <mxGeometry y="260" width="360" height="26" as="geometry" />
        </mxCell>
        <mxCell id="D-UneGRkx3yv40T7FV0B-128" value="- transp_requerido : boolean" style="text;strokeColor=none;fillColor=none;align=left;verticalAlign=top;spacingLeft=4;spacingRight=4;overflow=hidden;rotatable=0;points=[[0,0.5],[1,0.5]];portConstraint=eastwest;" parent="D-UneGRkx3yv40T7FV0B-118" vertex="1">
          <mxGeometry y="286" width="360" height="26" as="geometry" />
        </mxCell>
        <mxCell id="D-UneGRkx3yv40T7FV0B-129" value="- transp_comentario : String" style="text;strokeColor=none;fillColor=none;align=left;verticalAlign=top;spacingLeft=4;spacingRight=4;overflow=hidden;rotatable=0;points=[[0,0.5],[1,0.5]];portConstraint=eastwest;" parent="D-UneGRkx3yv40T7FV0B-118" vertex="1">
          <mxGeometry y="312" width="360" height="26" as="geometry" />
        </mxCell>
        <mxCell id="D-UneGRkx3yv40T7FV0B-130" value="- comentario : String" style="text;strokeColor=none;fillColor=none;align=left;verticalAlign=top;spacingLeft=4;spacingRight=4;overflow=hidden;rotatable=0;points=[[0,0.5],[1,0.5]];portConstraint=eastwest;" parent="D-UneGRkx3yv40T7FV0B-118" vertex="1">
          <mxGeometry y="338" width="360" height="26" as="geometry" />
        </mxCell>
        <mxCell id="D-UneGRkx3yv40T7FV0B-131" value="- estado : EstadoActividad" style="text;strokeColor=none;fillColor=none;align=left;verticalAlign=top;spacingLeft=4;spacingRight=4;overflow=hidden;rotatable=0;points=[[0,0.5],[1,0.5]];portConstraint=eastwest;" parent="D-UneGRkx3yv40T7FV0B-118" vertex="1">
          <mxGeometry y="364" width="360" height="26" as="geometry" />
        </mxCell>
        <mxCell id="D-UneGRkx3yv40T7FV0B-132" value="- estado_comentario : String" style="text;strokeColor=none;fillColor=none;align=left;verticalAlign=top;spacingLeft=4;spacingRight=4;overflow=hidden;rotatable=0;points=[[0,0.5],[1,0.5]];portConstraint=eastwest;" parent="D-UneGRkx3yv40T7FV0B-118" vertex="1">
          <mxGeometry y="390" width="360" height="26" as="geometry" />
        </mxCell>
        <mxCell id="D-UneGRkx3yv40T7FV0B-144" value="- empresa_transporte : String" style="text;strokeColor=none;fillColor=none;align=left;verticalAlign=top;spacingLeft=4;spacingRight=4;overflow=hidden;rotatable=0;points=[[0,0.5],[1,0.5]];portConstraint=eastwest;" parent="D-UneGRkx3yv40T7FV0B-118" vertex="1">
          <mxGeometry y="416" width="360" height="26" as="geometry" />
        </mxCell>
        <mxCell id="D-UneGRkx3yv40T7FV0B-145" value="- precio_transporte : double" style="text;strokeColor=none;fillColor=none;align=left;verticalAlign=top;spacingLeft=4;spacingRight=4;overflow=hidden;rotatable=0;points=[[0,0.5],[1,0.5]];portConstraint=eastwest;" parent="D-UneGRkx3yv40T7FV0B-118" vertex="1">
          <mxGeometry y="442" width="360" height="26" as="geometry" />
        </mxCell>
        <mxCell id="D-UneGRkx3yv40T7FV0B-134" value="- transportes : List&lt;MediosTransportes&gt;" style="text;strokeColor=none;fillColor=none;align=left;verticalAlign=top;spacingLeft=4;spacingRight=4;overflow=hidden;rotatable=0;points=[[0,0.5],[1,0.5]];portConstraint=eastwest;" parent="D-UneGRkx3yv40T7FV0B-118" vertex="1">
          <mxGeometry y="468" width="360" height="26" as="geometry" />
        </mxCell>
        <mxCell id="D-UneGRkx3yv40T7FV0B-135" value="- responsables : List&lt;Profesor&gt;" style="text;strokeColor=none;fillColor=none;align=left;verticalAlign=top;spacingLeft=4;spacingRight=4;overflow=hidden;rotatable=0;points=[[0,0.5],[1,0.5]];portConstraint=eastwest;" parent="D-UneGRkx3yv40T7FV0B-118" vertex="1">
          <mxGeometry y="494" width="360" height="26" as="geometry" />
        </mxCell>
        <mxCell id="D-UneGRkx3yv40T7FV0B-136" value="- participante : List&lt;Profesor&gt;" style="text;strokeColor=none;fillColor=none;align=left;verticalAlign=top;spacingLeft=4;spacingRight=4;overflow=hidden;rotatable=0;points=[[0,0.5],[1,0.5]];portConstraint=eastwest;" parent="D-UneGRkx3yv40T7FV0B-118" vertex="1">
          <mxGeometry y="520" width="360" height="26" as="geometry" />
        </mxCell>
        <mxCell id="D-UneGRkx3yv40T7FV0B-137" value="- cursos : List&lt;Curso&gt;" style="text;strokeColor=none;fillColor=none;align=left;verticalAlign=top;spacingLeft=4;spacingRight=4;overflow=hidden;rotatable=0;points=[[0,0.5],[1,0.5]];portConstraint=eastwest;" parent="D-UneGRkx3yv40T7FV0B-118" vertex="1">
          <mxGeometry y="546" width="360" height="26" as="geometry" />
        </mxCell>
        <mxCell id="D-UneGRkx3yv40T7FV0B-138" value="- grupos : List&lt;Grupo&gt;" style="text;strokeColor=none;fillColor=none;align=left;verticalAlign=top;spacingLeft=4;spacingRight=4;overflow=hidden;rotatable=0;points=[[0,0.5],[1,0.5]];portConstraint=eastwest;" parent="D-UneGRkx3yv40T7FV0B-118" vertex="1">
          <mxGeometry y="572" width="360" height="26" as="geometry" />
        </mxCell>
        <mxCell id="D-UneGRkx3yv40T7FV0B-139" value="" style="line;strokeWidth=1;fillColor=none;align=left;verticalAlign=middle;spacingTop=-1;spacingLeft=3;spacingRight=3;rotatable=0;labelPosition=right;points=[];portConstraint=eastwest;" parent="D-UneGRkx3yv40T7FV0B-118" vertex="1">
          <mxGeometry y="598" width="360" height="8" as="geometry" />
        </mxCell>
        <mxCell id="D-UneGRkx3yv40T7FV0B-140" value="+ Programada(solicitud : Solicitud, solicitante : Profesor,&#xa;titulo : String, tipo : TipoActividad,&#xa;fini : LocalDate, ffin : LocalDate,&#xa;hini : LocalTime, hfin : LocalTime,&#xa;previsto : boolean, transp_requerido : boolean,&#xa;transp_comentario : String,&#xa;comentario : String, estado : EtadoActividad,&#xa;estado_comentario : String, &#xa;numAlumnos : int, empresa_transporte : String, &#xa;precio_transporte : double, transportes : List&lt;MediosTransporte&gt;,&#xa;responsables : List&lt;Profesor&gt;, participantes : List&lt;Profesor&gt;,&#xa;cursos : List&lt;Curso&gt;, grupos : List&lt;Grupo&gt;" style="text;strokeColor=none;fillColor=none;align=left;verticalAlign=top;spacingLeft=4;spacingRight=4;overflow=hidden;rotatable=0;points=[[0,0.5],[1,0.5]];portConstraint=eastwest;" parent="D-UneGRkx3yv40T7FV0B-118" vertex="1">
          <mxGeometry y="606" width="360" height="176" as="geometry" />
        </mxCell>
        <mxCell id="D-UneGRkx3yv40T7FV0B-141" value="+ getter/setter" style="text;strokeColor=none;fillColor=none;align=left;verticalAlign=top;spacingLeft=4;spacingRight=4;overflow=hidden;rotatable=0;points=[[0,0.5],[1,0.5]];portConstraint=eastwest;" parent="D-UneGRkx3yv40T7FV0B-118" vertex="1">
          <mxGeometry y="782" width="360" height="26" as="geometry" />
        </mxCell>
        <mxCell id="D-UneGRkx3yv40T7FV0B-142" value="+ boolean equals(Object obj)" style="text;strokeColor=none;fillColor=none;align=left;verticalAlign=top;spacingLeft=4;spacingRight=4;overflow=hidden;rotatable=0;points=[[0,0.5],[1,0.5]];portConstraint=eastwest;" parent="D-UneGRkx3yv40T7FV0B-118" vertex="1">
          <mxGeometry y="808" width="360" height="26" as="geometry" />
        </mxCell>
        <mxCell id="hdvVi29aJsotizUqz47K-4" style="edgeStyle=orthogonalEdgeStyle;rounded=0;orthogonalLoop=1;jettySize=auto;html=1;entryX=0;entryY=0.5;entryDx=0;entryDy=0;" parent="1" source="D-UneGRkx3yv40T7FV0B-35" target="D-UneGRkx3yv40T7FV0B-137" edge="1">
          <mxGeometry relative="1" as="geometry">
            <Array as="points">
              <mxPoint x="880" y="1029" />
              <mxPoint x="880" y="722" />
            </Array>
          </mxGeometry>
        </mxCell>
        <mxCell id="hdvVi29aJsotizUqz47K-10" style="edgeStyle=orthogonalEdgeStyle;rounded=0;orthogonalLoop=1;jettySize=auto;html=1;" parent="1" source="D-UneGRkx3yv40T7FV0B-64" target="D-UneGRkx3yv40T7FV0B-119" edge="1">
          <mxGeometry relative="1" as="geometry">
            <Array as="points">
              <mxPoint x="780" y="209" />
              <mxPoint x="780" y="228" />
            </Array>
          </mxGeometry>
        </mxCell>
        <mxCell id="hdvVi29aJsotizUqz47K-11" value="se convierte" style="text;align=center;fontStyle=1;verticalAlign=middle;spacingLeft=3;spacingRight=3;strokeColor=none;rotatable=0;points=[[0,0.5],[1,0.5]];portConstraint=eastwest;" parent="1" vertex="1">
          <mxGeometry x="540" y="190" width="80" height="16" as="geometry" />
        </mxCell>
        <mxCell id="hdvVi29aJsotizUqz47K-12" value="1" style="text;align=center;fontStyle=1;verticalAlign=middle;spacingLeft=3;spacingRight=3;strokeColor=none;rotatable=0;points=[[0,0.5],[1,0.5]];portConstraint=eastwest;" parent="1" vertex="1">
          <mxGeometry x="431" y="188" width="20" height="26" as="geometry" />
        </mxCell>
        <mxCell id="hdvVi29aJsotizUqz47K-13" value="1" style="text;align=center;fontStyle=1;verticalAlign=middle;spacingLeft=3;spacingRight=3;strokeColor=none;rotatable=0;points=[[0,0.5],[1,0.5]];portConstraint=eastwest;" parent="1" vertex="1">
          <mxGeometry x="970" y="206" width="20" height="26" as="geometry" />
        </mxCell>
        <mxCell id="hdvVi29aJsotizUqz47K-14" value="solicita" style="text;align=center;fontStyle=1;verticalAlign=middle;spacingLeft=3;spacingRight=3;strokeColor=none;rotatable=0;points=[[0,0.5],[1,0.5]];portConstraint=eastwest;" parent="1" vertex="1">
          <mxGeometry x="540" y="216" width="80" height="16" as="geometry" />
        </mxCell>
        <mxCell id="hdvVi29aJsotizUqz47K-15" value="1" style="text;align=center;fontStyle=1;verticalAlign=middle;spacingLeft=3;spacingRight=3;strokeColor=none;rotatable=0;points=[[0,0.5],[1,0.5]];portConstraint=eastwest;" parent="1" vertex="1">
          <mxGeometry x="637" y="1227" width="20" height="26" as="geometry" />
        </mxCell>
        <mxCell id="hdvVi29aJsotizUqz47K-16" value="1" style="text;align=center;fontStyle=1;verticalAlign=middle;spacingLeft=3;spacingRight=3;strokeColor=none;rotatable=0;points=[[0,0.5],[1,0.5]];portConstraint=eastwest;" parent="1" vertex="1">
          <mxGeometry x="436" y="214" width="20" height="26" as="geometry" />
        </mxCell>
        <mxCell id="hdvVi29aJsotizUqz47K-17" value="solicita" style="text;align=center;fontStyle=1;verticalAlign=middle;spacingLeft=3;spacingRight=3;strokeColor=none;rotatable=0;points=[[0,0.5],[1,0.5]];portConstraint=eastwest;" parent="1" vertex="1">
          <mxGeometry x="869" y="238" width="80" height="16" as="geometry" />
        </mxCell>
        <mxCell id="hdvVi29aJsotizUqz47K-18" value="1" style="text;align=center;fontStyle=1;verticalAlign=middle;spacingLeft=3;spacingRight=3;strokeColor=none;rotatable=0;points=[[0,0.5],[1,0.5]];portConstraint=eastwest;" parent="1" vertex="1">
          <mxGeometry x="971" y="234" width="20" height="26" as="geometry" />
        </mxCell>
        <mxCell id="hdvVi29aJsotizUqz47K-19" value="es" style="text;align=center;fontStyle=1;verticalAlign=middle;spacingLeft=3;spacingRight=3;strokeColor=none;rotatable=0;points=[[0,0.5],[1,0.5]];portConstraint=eastwest;" parent="1" vertex="1">
          <mxGeometry x="540" y="270" width="80" height="16" as="geometry" />
        </mxCell>
        <mxCell id="hdvVi29aJsotizUqz47K-20" value="1" style="text;align=center;fontStyle=1;verticalAlign=middle;spacingLeft=3;spacingRight=3;strokeColor=none;rotatable=0;points=[[0,0.5],[1,0.5]];portConstraint=eastwest;" parent="1" vertex="1">
          <mxGeometry x="436" y="265" width="20" height="26" as="geometry" />
        </mxCell>
        <mxCell id="hdvVi29aJsotizUqz47K-21" value="1..N" style="text;align=center;fontStyle=1;verticalAlign=middle;spacingLeft=3;spacingRight=3;strokeColor=none;rotatable=0;points=[[0,0.5],[1,0.5]];portConstraint=eastwest;" parent="1" vertex="1">
          <mxGeometry x="687" y="168" width="20" height="26" as="geometry" />
        </mxCell>
        <mxCell id="hdvVi29aJsotizUqz47K-22" value="1..N" style="text;align=center;fontStyle=1;verticalAlign=middle;spacingLeft=3;spacingRight=3;strokeColor=none;rotatable=0;points=[[0,0.5],[1,0.5]];portConstraint=eastwest;" parent="1" vertex="1">
          <mxGeometry x="713" y="168" width="20" height="26" as="geometry" />
        </mxCell>
        <mxCell id="hdvVi29aJsotizUqz47K-23" value="1" style="text;align=center;fontStyle=1;verticalAlign=middle;spacingLeft=3;spacingRight=3;strokeColor=none;rotatable=0;points=[[0,0.5],[1,0.5]];portConstraint=eastwest;" parent="1" vertex="1">
          <mxGeometry x="973" y="285" width="20" height="26" as="geometry" />
        </mxCell>
        <mxCell id="hdvVi29aJsotizUqz47K-24" value="1" style="text;align=center;fontStyle=1;verticalAlign=middle;spacingLeft=3;spacingRight=3;strokeColor=none;rotatable=0;points=[[0,0.5],[1,0.5]];portConstraint=eastwest;" parent="1" vertex="1">
          <mxGeometry x="436" y="499" width="20" height="26" as="geometry" />
        </mxCell>
        <mxCell id="hdvVi29aJsotizUqz47K-25" value="1" style="text;align=center;fontStyle=1;verticalAlign=middle;spacingLeft=3;spacingRight=3;strokeColor=none;rotatable=0;points=[[0,0.5],[1,0.5]];portConstraint=eastwest;" parent="1" vertex="1">
          <mxGeometry x="976" y="520" width="20" height="26" as="geometry" />
        </mxCell>
        <mxCell id="hdvVi29aJsotizUqz47K-26" value="1..N" style="text;align=center;fontStyle=1;verticalAlign=middle;spacingLeft=3;spacingRight=3;strokeColor=none;rotatable=0;points=[[0,0.5],[1,0.5]];portConstraint=eastwest;" parent="1" vertex="1">
          <mxGeometry x="646" y="502" width="20" height="26" as="geometry" />
        </mxCell>
        <mxCell id="hdvVi29aJsotizUqz47K-27" value="1..N" style="text;align=center;fontStyle=1;verticalAlign=middle;spacingLeft=3;spacingRight=3;strokeColor=none;rotatable=0;points=[[0,0.5],[1,0.5]];portConstraint=eastwest;" parent="1" vertex="1">
          <mxGeometry x="792" y="502" width="20" height="26" as="geometry" />
        </mxCell>
        <mxCell id="hdvVi29aJsotizUqz47K-29" value="0..N" style="text;align=center;fontStyle=1;verticalAlign=middle;spacingLeft=3;spacingRight=3;strokeColor=none;rotatable=0;points=[[0,0.5],[1,0.5]];portConstraint=eastwest;" parent="1" vertex="1">
          <mxGeometry x="442" y="553" width="20" height="26" as="geometry" />
        </mxCell>
        <mxCell id="hdvVi29aJsotizUqz47K-30" value="0..N" style="text;align=center;fontStyle=1;verticalAlign=middle;spacingLeft=3;spacingRight=3;strokeColor=none;rotatable=0;points=[[0,0.5],[1,0.5]];portConstraint=eastwest;" parent="1" vertex="1">
          <mxGeometry x="968" y="622" width="20" height="26" as="geometry" />
        </mxCell>
        <mxCell id="hdvVi29aJsotizUqz47K-33" value="0..N" style="text;align=center;fontStyle=1;verticalAlign=middle;spacingLeft=3;spacingRight=3;strokeColor=none;rotatable=0;points=[[0,0.5],[1,0.5]];portConstraint=eastwest;" parent="1" vertex="1">
          <mxGeometry x="733" y="709" width="20" height="26" as="geometry" />
        </mxCell>
        <mxCell id="hdvVi29aJsotizUqz47K-34" value="0..N" style="text;align=center;fontStyle=1;verticalAlign=middle;spacingLeft=3;spacingRight=3;strokeColor=none;rotatable=0;points=[[0,0.5],[1,0.5]];portConstraint=eastwest;" parent="1" vertex="1">
          <mxGeometry x="707" y="704" width="20" height="26" as="geometry" />
        </mxCell>
        <mxCell id="hdvVi29aJsotizUqz47K-35" value="1..N" style="text;align=center;fontStyle=1;verticalAlign=middle;spacingLeft=3;spacingRight=3;strokeColor=none;rotatable=0;points=[[0,0.5],[1,0.5]];portConstraint=eastwest;" parent="1" vertex="1">
          <mxGeometry x="442" y="579" width="20" height="26" as="geometry" />
        </mxCell>
        <mxCell id="hdvVi29aJsotizUqz47K-36" value="0..N" style="text;align=center;fontStyle=1;verticalAlign=middle;spacingLeft=3;spacingRight=3;strokeColor=none;rotatable=0;points=[[0,0.5],[1,0.5]];portConstraint=eastwest;" parent="1" vertex="1">
          <mxGeometry x="441" y="606" width="20" height="26" as="geometry" />
        </mxCell>
        <mxCell id="hdvVi29aJsotizUqz47K-37" value="1..N" style="text;align=center;fontStyle=1;verticalAlign=middle;spacingLeft=3;spacingRight=3;strokeColor=none;rotatable=0;points=[[0,0.5],[1,0.5]];portConstraint=eastwest;" parent="1" vertex="1">
          <mxGeometry x="968" y="650" width="20" height="26" as="geometry" />
        </mxCell>
        <mxCell id="hdvVi29aJsotizUqz47K-38" value="0..N" style="text;align=center;fontStyle=1;verticalAlign=middle;spacingLeft=3;spacingRight=3;strokeColor=none;rotatable=0;points=[[0,0.5],[1,0.5]];portConstraint=eastwest;" parent="1" vertex="1">
          <mxGeometry x="968" y="676" width="20" height="26" as="geometry" />
        </mxCell>
        <mxCell id="hdvVi29aJsotizUqz47K-39" value="0..N" style="text;align=center;fontStyle=1;verticalAlign=middle;spacingLeft=3;spacingRight=3;strokeColor=none;rotatable=0;points=[[0,0.5],[1,0.5]];portConstraint=eastwest;" parent="1" vertex="1">
          <mxGeometry x="441" y="632" width="20" height="26" as="geometry" />
        </mxCell>
        <mxCell id="hdvVi29aJsotizUqz47K-40" value="0..N" style="text;align=center;fontStyle=1;verticalAlign=middle;spacingLeft=3;spacingRight=3;strokeColor=none;rotatable=0;points=[[0,0.5],[1,0.5]];portConstraint=eastwest;" parent="1" vertex="1">
          <mxGeometry x="441" y="658" width="20" height="26" as="geometry" />
        </mxCell>
        <mxCell id="hdvVi29aJsotizUqz47K-41" value="0..N" style="text;align=center;fontStyle=1;verticalAlign=middle;spacingLeft=3;spacingRight=3;strokeColor=none;rotatable=0;points=[[0,0.5],[1,0.5]];portConstraint=eastwest;" parent="1" vertex="1">
          <mxGeometry x="968" y="702" width="20" height="26" as="geometry" />
        </mxCell>
        <mxCell id="hdvVi29aJsotizUqz47K-42" value="0..N" style="text;align=center;fontStyle=1;verticalAlign=middle;spacingLeft=3;spacingRight=3;strokeColor=none;rotatable=0;points=[[0,0.5],[1,0.5]];portConstraint=eastwest;" parent="1" vertex="1">
          <mxGeometry x="968" y="728" width="20" height="26" as="geometry" />
        </mxCell>
        <mxCell id="hdvVi29aJsotizUqz47K-43" value="se encuentra" style="text;align=center;fontStyle=1;verticalAlign=middle;spacingLeft=3;spacingRight=3;strokeColor=none;rotatable=0;points=[[0,0.5],[1,0.5]];portConstraint=eastwest;" parent="1" vertex="1">
          <mxGeometry x="549" y="491" width="80" height="16" as="geometry" />
        </mxCell>
        <mxCell id="hdvVi29aJsotizUqz47K-45" value="se encuentra" style="text;align=center;fontStyle=1;verticalAlign=middle;spacingLeft=3;spacingRight=3;strokeColor=none;rotatable=0;points=[[0,0.5],[1,0.5]];portConstraint=eastwest;" parent="1" vertex="1">
          <mxGeometry x="820" y="491" width="80" height="16" as="geometry" />
        </mxCell>
        <mxCell id="hdvVi29aJsotizUqz47K-46" value="es" style="text;align=center;fontStyle=1;verticalAlign=middle;spacingLeft=3;spacingRight=3;strokeColor=none;rotatable=0;points=[[0,0.5],[1,0.5]];portConstraint=eastwest;" parent="1" vertex="1">
          <mxGeometry x="740" y="291" width="80" height="16" as="geometry" />
        </mxCell>
        <mxCell id="hdvVi29aJsotizUqz47K-47" value="requiere" style="text;align=center;fontStyle=1;verticalAlign=middle;spacingLeft=3;spacingRight=3;strokeColor=none;rotatable=0;points=[[0,0.5],[1,0.5]];portConstraint=eastwest;" parent="1" vertex="1">
          <mxGeometry x="540" y="558" width="80" height="16" as="geometry" />
        </mxCell>
        <mxCell id="hdvVi29aJsotizUqz47K-48" value="requiere" style="text;align=center;fontStyle=1;verticalAlign=middle;spacingLeft=3;spacingRight=3;strokeColor=none;rotatable=0;points=[[0,0.5],[1,0.5]];portConstraint=eastwest;" parent="1" vertex="1">
          <mxGeometry x="850" y="627" width="80" height="16" as="geometry" />
        </mxCell>
        <mxCell id="hdvVi29aJsotizUqz47K-49" value="es responsable" style="text;align=center;fontStyle=1;verticalAlign=middle;spacingLeft=3;spacingRight=3;strokeColor=none;rotatable=0;points=[[0,0.5],[1,0.5]];portConstraint=eastwest;" parent="1" vertex="1">
          <mxGeometry x="520" y="585" width="80" height="16" as="geometry" />
        </mxCell>
        <mxCell id="hdvVi29aJsotizUqz47K-50" value="es responsable" style="text;align=center;fontStyle=1;verticalAlign=middle;spacingLeft=3;spacingRight=3;strokeColor=none;rotatable=0;points=[[0,0.5],[1,0.5]];portConstraint=eastwest;" parent="1" vertex="1">
          <mxGeometry x="860" y="655" width="80" height="16" as="geometry" />
        </mxCell>
        <mxCell id="hdvVi29aJsotizUqz47K-51" value="participa" style="text;align=center;fontStyle=1;verticalAlign=middle;spacingLeft=3;spacingRight=3;strokeColor=none;rotatable=0;points=[[0,0.5],[1,0.5]];portConstraint=eastwest;" parent="1" vertex="1">
          <mxGeometry x="510" y="611" width="80" height="16" as="geometry" />
        </mxCell>
        <mxCell id="hdvVi29aJsotizUqz47K-52" value="participa" style="text;align=center;fontStyle=1;verticalAlign=middle;spacingLeft=3;spacingRight=3;strokeColor=none;rotatable=0;points=[[0,0.5],[1,0.5]];portConstraint=eastwest;" parent="1" vertex="1">
          <mxGeometry x="860" y="681" width="80" height="16" as="geometry" />
        </mxCell>
        <mxCell id="hdvVi29aJsotizUqz47K-53" value="participan" style="text;align=center;fontStyle=1;verticalAlign=middle;spacingLeft=3;spacingRight=3;strokeColor=none;rotatable=0;points=[[0,0.5],[1,0.5]];portConstraint=eastwest;horizontal=0;" parent="1" vertex="1">
          <mxGeometry x="454" y="729" width="80" height="16" as="geometry" />
        </mxCell>
        <mxCell id="hdvVi29aJsotizUqz47K-56" value="participan" style="text;align=center;fontStyle=1;verticalAlign=middle;spacingLeft=3;spacingRight=3;strokeColor=none;rotatable=0;points=[[0,0.5],[1,0.5]];portConstraint=eastwest;horizontal=0;" parent="1" vertex="1">
          <mxGeometry x="423" y="745" width="80" height="16" as="geometry" />
        </mxCell>
        <mxCell id="hdvVi29aJsotizUqz47K-57" value="participan" style="text;align=center;fontStyle=1;verticalAlign=middle;spacingLeft=3;spacingRight=3;strokeColor=none;rotatable=0;points=[[0,0.5],[1,0.5]];portConstraint=eastwest;horizontal=0;" parent="1" vertex="1">
          <mxGeometry x="832" y="770" width="80" height="31" as="geometry" />
        </mxCell>
        <mxCell id="hdvVi29aJsotizUqz47K-59" value="participan" style="text;align=center;fontStyle=1;verticalAlign=middle;spacingLeft=3;spacingRight=3;strokeColor=none;rotatable=0;points=[[0,0.5],[1,0.5]];portConstraint=eastwest;horizontal=0;" parent="1" vertex="1">
          <mxGeometry x="852" y="791" width="80" height="16" as="geometry" />
        </mxCell>
        <mxCell id="hdvVi29aJsotizUqz47K-60" value="" style="edgeStyle=orthogonalEdgeStyle;rounded=0;orthogonalLoop=1;jettySize=auto;html=1;endArrow=none;" parent="1" source="D-UneGRkx3yv40T7FV0B-52" target="hdvVi29aJsotizUqz47K-59" edge="1">
          <mxGeometry relative="1" as="geometry">
            <mxPoint x="560" y="1176.0000000000002" as="sourcePoint" />
            <mxPoint x="1000" y="748" as="targetPoint" />
            <Array as="points">
              <mxPoint x="900" y="1176" />
            </Array>
          </mxGeometry>
        </mxCell>
        <mxCell id="hdvVi29aJsotizUqz47K-61" value="pertenece" style="text;align=center;fontStyle=1;verticalAlign=middle;spacingLeft=3;spacingRight=3;strokeColor=none;rotatable=0;points=[[0,0.5],[1,0.5]];portConstraint=eastwest;horizontal=0;" parent="1" vertex="1">
          <mxGeometry x="290" y="1100" width="80" height="16" as="geometry" />
        </mxCell>
        <mxCell id="hdvVi29aJsotizUqz47K-62" value="1..N" style="text;align=center;fontStyle=1;verticalAlign=middle;spacingLeft=3;spacingRight=3;strokeColor=none;rotatable=0;points=[[0,0.5],[1,0.5]];portConstraint=eastwest;" parent="1" vertex="1">
          <mxGeometry x="301" y="1119" width="20" height="26" as="geometry" />
        </mxCell>
        <mxCell id="hdvVi29aJsotizUqz47K-63" value="1" style="text;align=center;fontStyle=1;verticalAlign=middle;spacingLeft=3;spacingRight=3;strokeColor=none;rotatable=0;points=[[0,0.5],[1,0.5]];portConstraint=eastwest;" parent="1" vertex="1">
          <mxGeometry x="360" y="1085" width="20" height="26" as="geometry" />
        </mxCell>
        <mxCell id="hdvVi29aJsotizUqz47K-64" value="1" style="text;align=center;fontStyle=1;verticalAlign=middle;spacingLeft=3;spacingRight=3;strokeColor=none;rotatable=0;points=[[0,0.5],[1,0.5]];portConstraint=eastwest;" parent="1" vertex="1">
          <mxGeometry x="100" y="1085" width="20" height="26" as="geometry" />
        </mxCell>
        <mxCell id="hdvVi29aJsotizUqz47K-65" value="0..N" style="text;align=center;fontStyle=1;verticalAlign=middle;spacingLeft=3;spacingRight=3;strokeColor=none;rotatable=0;points=[[0,0.5],[1,0.5]];portConstraint=eastwest;" parent="1" vertex="1">
          <mxGeometry x="70" y="1320" width="20" height="26" as="geometry" />
        </mxCell>
        <mxCell id="hdvVi29aJsotizUqz47K-66" value="0..N" style="text;align=center;fontStyle=1;verticalAlign=middle;spacingLeft=3;spacingRight=3;strokeColor=none;rotatable=0;points=[[0,0.5],[1,0.5]];portConstraint=eastwest;" parent="1" vertex="1">
          <mxGeometry x="217" y="969" width="20" height="26" as="geometry" />
        </mxCell>
        <mxCell id="hdvVi29aJsotizUqz47K-67" value="1" style="text;align=center;fontStyle=1;verticalAlign=middle;spacingLeft=3;spacingRight=3;strokeColor=none;rotatable=0;points=[[0,0.5],[1,0.5]];portConstraint=eastwest;" parent="1" vertex="1">
          <mxGeometry x="805" y="1229" width="20" height="26" as="geometry" />
        </mxCell>
        <mxCell id="hdvVi29aJsotizUqz47K-68" value="0..N" style="text;align=center;fontStyle=1;verticalAlign=middle;spacingLeft=3;spacingRight=3;strokeColor=none;rotatable=0;points=[[0,0.5],[1,0.5]];portConstraint=eastwest;" parent="1" vertex="1">
          <mxGeometry x="473" y="1021" width="20" height="26" as="geometry" />
        </mxCell>
        <mxCell id="hdvVi29aJsotizUqz47K-69" value="0..N" style="text;align=center;fontStyle=1;verticalAlign=middle;spacingLeft=3;spacingRight=3;strokeColor=none;rotatable=0;points=[[0,0.5],[1,0.5]];portConstraint=eastwest;" parent="1" vertex="1">
          <mxGeometry x="609" y="1229" width="20" height="26" as="geometry" />
        </mxCell>
        <mxCell id="hdvVi29aJsotizUqz47K-70" value="0..N" style="text;align=center;fontStyle=1;verticalAlign=middle;spacingLeft=3;spacingRight=3;strokeColor=none;rotatable=0;points=[[0,0.5],[1,0.5]];portConstraint=eastwest;" parent="1" vertex="1">
          <mxGeometry x="596" y="1431" width="20" height="26" as="geometry" />
        </mxCell>
        <mxCell id="hdvVi29aJsotizUqz47K-72" value="0..N" style="text;align=center;fontStyle=1;verticalAlign=middle;spacingLeft=3;spacingRight=3;strokeColor=none;rotatable=0;points=[[0,0.5],[1,0.5]];portConstraint=eastwest;" parent="1" vertex="1">
          <mxGeometry x="832" y="1230" width="20" height="26" as="geometry" />
        </mxCell>
        <mxCell id="hdvVi29aJsotizUqz47K-73" value="0..N" style="text;align=center;fontStyle=1;verticalAlign=middle;spacingLeft=3;spacingRight=3;strokeColor=none;rotatable=0;points=[[0,0.5],[1,0.5]];portConstraint=eastwest;" parent="1" vertex="1">
          <mxGeometry x="863" y="1381" width="20" height="26" as="geometry" />
        </mxCell>
        <mxCell id="hdvVi29aJsotizUqz47K-74" value="1" style="text;align=center;fontStyle=1;verticalAlign=middle;spacingLeft=3;spacingRight=3;strokeColor=none;rotatable=0;points=[[0,0.5],[1,0.5]];portConstraint=eastwest;" parent="1" vertex="1">
          <mxGeometry x="842" y="1421" width="20" height="26" as="geometry" />
        </mxCell>
        <mxCell id="hdvVi29aJsotizUqz47K-75" value="1..N" style="text;align=center;fontStyle=1;verticalAlign=middle;spacingLeft=3;spacingRight=3;strokeColor=none;rotatable=0;points=[[0,0.5],[1,0.5]];portConstraint=eastwest;" parent="1" vertex="1">
          <mxGeometry x="988" y="1431" width="20" height="26" as="geometry" />
        </mxCell>
        <mxCell id="hdvVi29aJsotizUqz47K-77" style="edgeStyle=orthogonalEdgeStyle;rounded=0;orthogonalLoop=1;jettySize=auto;html=1;" parent="1" source="D-UneGRkx3yv40T7FV0B-2" target="D-UneGRkx3yv40T7FV0B-15" edge="1">
          <mxGeometry relative="1" as="geometry" />
        </mxCell>
        <mxCell id="hdvVi29aJsotizUqz47K-78" style="edgeStyle=orthogonalEdgeStyle;rounded=0;orthogonalLoop=1;jettySize=auto;html=1;" parent="1" source="D-UneGRkx3yv40T7FV0B-10" target="D-UneGRkx3yv40T7FV0B-6" edge="1">
          <mxGeometry relative="1" as="geometry">
            <Array as="points">
              <mxPoint x="570" y="1289" />
              <mxPoint x="570" y="1455" />
            </Array>
          </mxGeometry>
        </mxCell>
        <mxCell id="hdvVi29aJsotizUqz47K-79" value="1..N" style="text;align=center;fontStyle=1;verticalAlign=middle;spacingLeft=3;spacingRight=3;strokeColor=none;rotatable=0;points=[[0,0.5],[1,0.5]];portConstraint=eastwest;" parent="1" vertex="1">
          <mxGeometry x="375" y="1355" width="20" height="26" as="geometry" />
        </mxCell>
        <mxCell id="hdvVi29aJsotizUqz47K-80" value="1" style="text;align=center;fontStyle=1;verticalAlign=middle;spacingLeft=3;spacingRight=3;strokeColor=none;rotatable=0;points=[[0,0.5],[1,0.5]];portConstraint=eastwest;" parent="1" vertex="1">
          <mxGeometry x="598" y="1475" width="20" height="26" as="geometry" />
        </mxCell>
        <mxCell id="hdvVi29aJsotizUqz47K-81" value="1" style="text;align=center;fontStyle=1;verticalAlign=middle;spacingLeft=3;spacingRight=3;strokeColor=none;rotatable=0;points=[[0,0.5],[1,0.5]];portConstraint=eastwest;" parent="1" vertex="1">
          <mxGeometry x="605" y="1269" width="20" height="26" as="geometry" />
        </mxCell>
        <mxCell id="hdvVi29aJsotizUqz47K-82" value="1" style="text;align=center;fontStyle=1;verticalAlign=middle;spacingLeft=3;spacingRight=3;strokeColor=none;rotatable=0;points=[[0,0.5],[1,0.5]];portConstraint=eastwest;" parent="1" vertex="1">
          <mxGeometry x="375" y="1434" width="20" height="26" as="geometry" />
        </mxCell>
        <mxCell id="hdvVi29aJsotizUqz47K-83" value="0..N" style="text;align=center;fontStyle=1;verticalAlign=middle;spacingLeft=3;spacingRight=3;strokeColor=none;rotatable=0;points=[[0,0.5],[1,0.5]];portConstraint=eastwest;" parent="1" vertex="1">
          <mxGeometry x="302" y="1010" width="20" height="26" as="geometry" />
        </mxCell>
        <mxCell id="hdvVi29aJsotizUqz47K-84" value="0..N" style="text;align=center;fontStyle=1;verticalAlign=middle;spacingLeft=3;spacingRight=3;strokeColor=none;rotatable=0;points=[[0,0.5],[1,0.5]];portConstraint=eastwest;" parent="1" vertex="1">
          <mxGeometry x="563" y="1156" width="20" height="26" as="geometry" />
        </mxCell>
        <mxCell id="hdvVi29aJsotizUqz47K-85" value="tiene permisos de" style="text;align=center;fontStyle=1;verticalAlign=middle;spacingLeft=3;spacingRight=3;strokeColor=none;rotatable=0;points=[[0,0.5],[1,0.5]];portConstraint=eastwest;" parent="1" vertex="1">
          <mxGeometry x="883" y="1427" width="80" height="16" as="geometry" />
        </mxCell>
        <mxCell id="hdvVi29aJsotizUqz47K-87" value="es jefe de" style="text;align=center;fontStyle=1;verticalAlign=middle;spacingLeft=3;spacingRight=3;strokeColor=none;rotatable=0;points=[[0,0.5],[1,0.5]];portConstraint=eastwest;" parent="1" vertex="1">
          <mxGeometry x="406" y="1439" width="80" height="16" as="geometry" />
        </mxCell>
        <mxCell id="hdvVi29aJsotizUqz47K-88" value="pertenece a" style="text;align=center;fontStyle=1;verticalAlign=middle;spacingLeft=3;spacingRight=3;strokeColor=none;rotatable=0;points=[[0,0.5],[1,0.5]];portConstraint=eastwest;horizontal=0;" parent="1" vertex="1">
          <mxGeometry x="447" y="1406" width="80" height="16" as="geometry" />
        </mxCell>
        <mxCell id="hdvVi29aJsotizUqz47K-89" value="de etapa" style="text;align=center;fontStyle=1;verticalAlign=middle;spacingLeft=3;spacingRight=3;strokeColor=none;rotatable=0;points=[[0,0.5],[1,0.5]];portConstraint=eastwest;horizontal=0;" parent="1" vertex="1">
          <mxGeometry x="40" y="1210" width="80" height="16" as="geometry" />
        </mxCell>
      </root>
    </mxGraphModel>
  </diagram>
</mxfile>
